<svg width="495" height="500" viewBox="0 0 495 500" fill="none" xmlns="http://www.w3.org/2000/svg">
<rect x="23" y="19" width="444" height="443" rx="180" fill="white"/>
<path d="M309.451 194.899C301.851 197.699 292.117 207.299 287.584 216.632C277.584 237.032 277.451 271.032 287.317 291.832C298.251 314.899 322.117 322.099 342.117 308.499C354.384 300.099 361.051 283.832 362.251 259.165C363.717 229.165 355.051 207.165 337.717 197.032C330.251 192.632 317.984 191.699 309.451 194.899Z" fill="#030712"/>
<path d="M92.6239 2.12305C68.7017 6.81725 52.1736 15.4944 34.4857 32.7065C19.9874 46.7891 12.1583 59.0225 5.34406 78.2261C0.559612 91.7397 0.559613 91.7397 0.124663 244.23C-0.165303 391.742 -0.165303 397.29 2.58938 410.661C4.61914 420.334 7.66379 428.727 12.3032 438.115C18.2476 449.78 21.1472 453.62 33.7607 465.996C46.5193 478.514 50.2888 481.216 63.1923 487.475C90.0142 500.705 79.5754 499.993 250.656 499.993C400.713 499.993 400.713 499.993 412.022 496.722C458.416 483.635 480.931 450.52 489.63 405C490.5 400.733 492.197 341.244 492.197 253.192C492.487 91.3129 498.039 91.8416 489.63 71.5C484.265 58.6976 473.64 39.6767 463.346 30.5728C446.963 15.9211 425.07 5.39476 402.308 1.55405C388.679 -0.86418 104.802 -0.29518 92.6239 2.12305ZM266.459 117.771C274.723 123.746 276.028 127.017 276.607 144.514C277.187 164.998 277.477 165.282 293.57 158.881C304.009 154.756 306.474 154.471 320.972 154.471C334.166 154.471 338.37 155.04 345.619 157.743C367.077 165.993 383.315 182.779 392.159 205.681C395.784 215.069 400.568 239.821 399.118 241.954C398.683 242.666 393.754 243.234 388.1 243.234C379.401 243.234 377.081 243.803 374.326 246.364C371.426 249.067 370.991 250.774 370.991 259.878C370.991 269.408 371.281 270.688 374.761 273.818C378.096 276.947 380.125 277.374 388.534 277.374C400.423 277.374 400.278 277.232 394.914 293.59C387.81 315.212 378.386 328.584 363.452 338.968C351.274 347.361 339.675 351.486 325.322 352.339C303.864 353.619 286.466 347.503 270.663 332.993C260.369 323.463 253.41 313.079 248.191 298.996C240.217 277.801 239.202 261.442 242.246 200.275C243.551 171.826 243.551 164.713 241.957 162.864C237.172 157.174 231.083 162.864 216.439 186.335C205.856 203.547 196.287 223.32 187.588 246.791C179.904 267.701 176.714 271.684 168.16 271.684C160.621 271.684 158.156 268.555 148.877 247.36C138.874 224.315 129.015 207.53 117.271 193.021C107.412 180.787 101.758 177.231 97.8433 180.645C95.8135 182.21 95.5236 191.456 95.5236 259.593C95.5236 312.367 95.0886 338.114 93.9287 341.244C93.0588 343.804 90.4492 346.649 88.1294 347.787C83.345 350.348 72.4712 350.632 67.5418 348.356C59.7127 344.942 60.0027 348.356 59.7127 243.661C59.5677 133.845 58.8428 139.962 70.8764 133.988C84.0699 127.302 101.903 132.138 120.896 147.501C131.624 156.178 148.152 174.671 156.996 188.042C165.55 200.844 167.58 200.702 175.409 186.762C197.157 147.928 220.934 122.181 241.232 115.637C248.771 113.219 261.819 114.357 266.459 117.771ZM424.345 220.901C425.505 221.755 426.085 227.018 426.085 237.687C426.085 253.192 426.085 253.192 440.438 253.192C455.517 253.192 459.431 254.614 459.431 260.162C459.431 266.137 456.387 267.275 441.308 267.701C426.81 268.128 426.81 268.128 426.085 284.202C425.36 301.13 424.49 302.979 417.966 302.979C416.371 302.979 413.762 301.699 412.312 300.134C410.137 297.858 409.847 295.297 410.282 282.78C410.862 268.128 410.862 268.128 395.639 267.417C380.56 266.706 380.415 266.706 379.111 262.723C376.356 255.326 378.821 254.045 395.784 253.192C410.862 252.481 410.862 252.481 410.282 239.536C409.992 232.424 410.282 225.169 410.862 223.462C412.457 218.199 419.126 217.061 424.345 220.901Z" fill="#030712"/>
</svg>
